<?xml version="1.0" standalone="no"?>
<!DOCTYPE svg PUBLIC "-//W3C//DTD SVG 20010904//EN"
 "http://www.w3.org/TR/2001/REC-SVG-20010904/DTD/svg10.dtd">
<svg version="1.0" xmlns="http://www.w3.org/2000/svg"
 width="990.000000pt" height="990.000000pt" viewBox="0 0 990.000000 990.000000"
 preserveAspectRatio="xMidYMid meet">
<metadata>
Created by potrace 1.14, written by Peter Selinger 2001-2017
</metadata>
<g transform="translate(0.000000,990.000000) scale(0.100000,-0.100000)"
fill="#000000" stroke="none">
<path d="M7257 9684 c-1 -1 -42 -4 -92 -8 -284 -20 -543 -114 -785 -283 -76
-54 -227 -199 -764 -734 l-669 -666 -446 445 c-553 552 -662 642 -972 800
-235 120 -552 219 -764 238 -33 3 -64 9 -70 12 -15 9 -421 11 -500 2 -101 -12
-153 -19 -210 -30 -27 -6 -59 -12 -70 -14 -11 -2 -56 -13 -100 -25 -669 -172
-1243 -636 -1553 -1256 -172 -341 -254 -690 -256 -1075 -1 -408 74 -736 250
-1096 53 -109 210 -366 233 -384 4 -3 22 -25 41 -50 192 -250 512 -510 812
-660 l67 -33 -508 -511 c-280 -281 -522 -527 -538 -546 -88 -107 -164 -226
-213 -335 -17 -38 -35 -79 -40 -90 -35 -78 -75 -237 -94 -375 -12 -83 -14
-356 -3 -400 2 -8 7 -37 11 -65 30 -199 146 -482 258 -630 89 -118 215 -250
681 -715 305 -305 578 -577 606 -603 75 -71 218 -168 330 -226 91 -47 278
-117 340 -127 14 -3 33 -7 41 -9 18 -5 57 -12 142 -25 62 -9 360 -6 427 5 248
38 501 146 709 302 44 33 357 337 735 714 l657 657 418 -415 c450 -448 524
-518 665 -622 318 -235 676 -381 1091 -446 167 -26 536 -26 696 1 84 13 239
46 285 60 28 9 61 18 74 20 46 9 266 97 356 141 420 208 766 524 1010 921 186
304 311 687 342 1050 16 190 8 419 -22 597 -28 170 -41 224 -87 365 -169 521
-508 968 -968 1275 -53 35 -146 90 -207 122 l-112 59 507 507 c279 280 532
539 562 578 147 188 250 403 301 632 45 202 46 456 4 662 -50 244 -192 531
-346 699 -139 152 -1205 1208 -1275 1262 -88 69 -191 132 -299 183 -70 33
-215 85 -267 95 -16 3 -40 9 -55 12 -16 3 -46 9 -68 14 -58 12 -288 31 -298
24z m98 -1310 c17 -4 44 -13 60 -22 50 -25 1129 -1110 1154 -1161 28 -54 34
-139 14 -206 -14 -47 -53 -88 -576 -612 -409 -410 -574 -569 -607 -585 -63
-31 -168 -30 -230 2 -31 16 -236 215 -674 653 l-629 629 629 630 c363 363 645
638 667 649 42 22 110 38 142 33 11 -2 34 -7 50 -10z m-4815 -178 c179 -14
366 -81 523 -188 90 -61 79 -51 538 -509 l427 -427 -446 -444 c-449 -446 -504
-495 -642 -563 -110 -55 -241 -96 -360 -113 -90 -12 -288 -6 -365 12 -11 2
-41 9 -67 15 -227 52 -481 224 -627 424 -107 146 -183 334 -209 517 -13 88 -4
352 12 378 3 5 8 23 11 41 14 79 68 213 123 306 166 279 445 478 752 535 64
12 225 28 245 24 6 -2 44 -5 85 -8z m3040 -2676 l630 -630 -78 -51 c-171 -115
-266 -201 -712 -646 l-466 -463 -631 632 -632 632 82 54 c192 128 204 138 732
664 242 241 441 438 443 438 1 0 286 -283 632 -630z m-2855 -1425 c28 -12 233
-210 674 -652 l634 -635 -619 -619 c-340 -341 -640 -633 -666 -650 -63 -40
-142 -49 -222 -24 -55 17 -76 37 -617 578 -346 346 -568 576 -581 601 -30 56
-31 163 -2 226 16 34 157 181 573 597 614 614 604 605 720 600 36 -2 84 -12
106 -22z m4971 -179 c399 -87 714 -367 843 -749 16 -45 28 -85 29 -90 0 -4 6
-33 13 -65 18 -84 16 -331 -4 -422 -51 -235 -143 -405 -307 -571 -163 -166
-334 -260 -570 -315 -82 -19 -315 -25 -405 -11 -183 29 -350 100 -501 213 -62
46 -904 880 -912 903 -3 9 779 795 860 863 160 136 390 238 573 255 28 3 52 7
54 9 10 9 265 -6 327 -20z"/>
</g>
</svg>
