<?xml version="1.0" encoding="iso-8859-1"?>
<!-- Uploaded to: SVG Repo, www.svgrepo.com, Generator: SVG Repo Mixer Tools -->
<!DOCTYPE svg PUBLIC "-//W3C//DTD SVG 1.1//EN" "http://www.w3.org/Graphics/SVG/1.1/DTD/svg11.dtd">
<svg height="800px" width="800px" version="1.1" id="Capa_1" xmlns="http://www.w3.org/2000/svg" xmlns:xlink="http://www.w3.org/1999/xlink" 
	 viewBox="0 0 297.5 297.5" xml:space="preserve">
<g>
	<g id="XMLID_26_">
		<g>
			<path style="fill:#ACBFC7;" d="M259.81,29.04v83.69H120.37l-14.52-29.05c-1.71-3.41-5.2-5.56-9.01-5.56H37.69V29.04H259.81z
				 M242.32,53.58c0-3.89-3.15-7.05-7.05-7.05h-86.52c-3.89,0-7.04,3.16-7.04,7.05s3.15,7.05,7.04,7.05h86.52
				C239.17,60.63,242.32,57.47,242.32,53.58z M242.32,88.19c0-3.9-3.15-7.05-7.05-7.05h-86.52c-3.89,0-7.04,3.15-7.04,7.05
				c0,3.89,3.15,7.04,7.04,7.04h86.52C239.17,95.23,242.32,92.08,242.32,88.19z M121.19,53.58c0-3.89-3.15-7.05-7.05-7.05h-34.6
				c-3.9,0-7.05,3.16-7.05,7.05s3.15,7.05,7.05,7.05h34.6C118.04,60.63,121.19,57.47,121.19,53.58z"/>
			<path style="fill:#00C08D;" d="M277.12,132.86v112.2c0,12.9-10.5,23.4-23.41,23.4H43.79c-12.9,0-23.4-10.5-23.4-23.4V98.25h70.23
				l14.52,29.05c1.71,3.41,5.19,5.56,9,5.56H277.12z M187.14,198.34c0-5.56-4.51-10.06-10.07-10.06h-18.25v-18.25
				c0-5.56-4.51-10.07-10.07-10.07s-10.06,4.51-10.06,10.07v18.25h-18.25c-5.56,0-10.07,4.5-10.07,10.06s4.51,10.07,10.07,10.07
				h18.25v18.25c0,5.56,4.5,10.07,10.06,10.07s10.07-4.51,10.07-10.07v-18.25h18.25C182.63,208.41,187.14,203.9,187.14,198.34z"/>
			<path d="M297.25,122.79v122.27c0,24.01-19.53,43.54-43.54,43.54H43.79c-24.01,0-43.54-19.53-43.54-43.54V88.19
				c0-5.56,4.51-10.07,10.07-10.07h7.24V18.97c0-5.56,4.5-10.07,10.06-10.07h242.26c5.56,0,10.07,4.51,10.07,10.07v93.76h7.24
				C292.75,112.73,297.25,117.23,297.25,122.79z M277.12,245.06v-112.2H114.14c-3.81,0-7.29-2.15-9-5.56L90.62,98.25H20.39v146.81
				c0,12.9,10.5,23.4,23.4,23.4h209.92C266.62,268.46,277.12,257.96,277.12,245.06z M259.81,112.73V29.04H37.69v49.08h59.15
				c3.81,0,7.3,2.15,9.01,5.56l14.52,29.05H259.81z"/>
			<path d="M235.27,46.53c3.9,0,7.05,3.16,7.05,7.05s-3.15,7.05-7.05,7.05h-86.52c-3.89,0-7.04-3.16-7.04-7.05s3.15-7.05,7.04-7.05
				H235.27z"/>
			<path d="M235.27,81.14c3.9,0,7.05,3.15,7.05,7.05c0,3.89-3.15,7.04-7.05,7.04h-86.52c-3.89,0-7.04-3.15-7.04-7.04
				c0-3.9,3.15-7.05,7.04-7.05H235.27z"/>
			<path d="M177.07,188.28c5.56,0,10.07,4.5,10.07,10.06s-4.51,10.07-10.07,10.07h-18.25v18.25c0,5.56-4.51,10.07-10.07,10.07
				s-10.06-4.51-10.06-10.07v-18.25h-18.25c-5.56,0-10.07-4.51-10.07-10.07s4.51-10.06,10.07-10.06h18.25v-18.25
				c0-5.56,4.5-10.07,10.06-10.07s10.07,4.51,10.07,10.07v18.25H177.07z"/>
			<path d="M114.14,46.53c3.9,0,7.05,3.16,7.05,7.05s-3.15,7.05-7.05,7.05h-34.6c-3.9,0-7.05-3.16-7.05-7.05s3.15-7.05,7.05-7.05
				H114.14z"/>
		</g>
		<g>
		</g>
	</g>
</g>
</svg>